<?xml version="1.0" encoding="UTF-8" standalone="no"?>
<!--
  - Copyright Exafunction, Inc.
  -->

<svg
        xmlns:dc="http://purl.org/dc/elements/1.1/"
        xmlns:cc="http://creativecommons.org/ns#"
        xmlns:rdf="http://www.w3.org/1999/02/22-rdf-syntax-ns#"
        xmlns="http://www.w3.org/2000/svg"
        xmlns:sodipodi="http://sodipodi.sourceforge.net/DTD/sodipodi-0.dtd"
        xmlns:inkscape="http://www.inkscape.org/namespaces/inkscape"
        viewBox="0 0 40 40"
        fill="none"
        version="1.1"
        id="svg845"
        sodipodi:docname="pluginIcon.svg"
        inkscape:version="1.0.1 (c497b03c, 2020-09-10)"
        width="40"
        height="40">
    <metadata
            id="metadata851">
        <rdf:RDF>
            <cc:Work
                    rdf:about="">
                <dc:format>image/svg+xml</dc:format>
                <dc:type
                        rdf:resource="http://purl.org/dc/dcmitype/StillImage"/>
                <dc:title></dc:title>
            </cc:Work>
        </rdf:RDF>
    </metadata>
    <defs
            id="defs849"/>
    <sodipodi:namedview
            pagecolor="#ffffff"
            bordercolor="#666666"
            borderopacity="1"
            objecttolerance="10"
            gridtolerance="10"
            guidetolerance="10"
            inkscape:pageopacity="0"
            inkscape:pageshadow="2"
            inkscape:window-width="3221"
            inkscape:window-height="1712"
            id="namedview847"
            showgrid="false"
            inkscape:zoom="1.545"
            inkscape:cx="202"
            inkscape:cy="202"
            inkscape:window-x="0"
            inkscape:window-y="25"
            inkscape:window-maximized="0"
            inkscape:current-layer="svg845"
            fit-margin-top="2"
            fit-margin-left="2"
            fit-margin-right="2"
            fit-margin-bottom="2"/>
    <path
            fill-rule="evenodd"
            clip-rule="evenodd"
            d="M 37.36739,2.6326478 20,20 37.36739,37.36739 C 37.75826,36.97643 38,36.43643 38,35.84 V 4.16 C 38,3.563534 37.75826,3.023534 37.36739,2.6326478 Z"
            fill="#60d5c4"
            id="path833"
            style="stroke-width:0.0900001"/>
    <path
            fill-rule="evenodd"
            clip-rule="evenodd"
            d="M 37.36739,2.6326496 20,20 2.6326478,2.6326496 C 3.023534,2.2417661 3.563534,2 4.16,2 h 31.68 c 0.59643,0 1.13643,0.2417661 1.52739,0.6326496 z"
            fill="#71e9d8"
            id="path835"
            style="stroke-width:0.0900001"/>
    <path
            fill-rule="evenodd"
            clip-rule="evenodd"
            d="M 2.6326496,2.6326478 20,20 2.6326496,37.36739 C 2.2417661,36.97643 2,36.43643 2,35.84 V 4.16 C 2,3.563534 2.2417661,3.023534 2.6326496,2.6326478 Z"
            fill="#60d5c4"
            id="path837"
            style="stroke-width:0.0900001"/>
    <path
            fill-rule="evenodd"
            clip-rule="evenodd"
            d="M 37.36739,37.36739 20,20 2.6326478,37.36739 C 3.023534,37.75826 3.563534,38 4.16,38 h 31.68 c 0.59643,0 1.13643,-0.24174 1.52739,-0.63261 z"
            fill="#71e9d8"
            id="path839"
            style="stroke-width:0.0900001"/>
    <rect
            x="6.5"
            y="6.5"
            width="27"
            height="27"
            rx="0.17999999"
            fill="#09b6a2"
            id="rect841"
            style="stroke-width:0.0900001"/>
    <path
            d="m 12.872,28.1108 c -1.7604,0 -2.6406,-0.8802 -2.6406,-2.6406 v -3.7746 c 0,-0.6588 -0.324,-0.9882 -0.972,-0.9882 -0.2376,0 -0.4374,-0.0756 -0.5994,-0.2268 -0.1512,-0.1512 -0.2268,-0.3456 -0.2268,-0.5832 0,-0.2484 0.0756,-0.4482 0.2268,-0.5994 0.162,-0.1512 0.3618,-0.2268 0.5994,-0.2268 0.648,0 0.972,-0.3294 0.972,-0.9882 v -3.7746 c 0,-1.7604 0.8802,-2.6406 2.6406,-2.6406 0.2376,0 0.432,0.081 0.5832,0.243 0.1512,0.162 0.2268,0.3618 0.2268,0.5994 0,0.2376 -0.0756,0.432 -0.2268,0.5832 -0.1512,0.1512 -0.3456,0.2268 -0.5832,0.2268 -0.6588,0 -0.9882,0.3294 -0.9882,0.9882 v 3.7746 c 0,0.378 -0.0432,0.7182 -0.1296,1.0206 -0.0864,0.3024 -0.216,0.567 -0.3888,0.7938 0.3456,0.4428 0.5184,1.0422 0.5184,1.7982 v 3.7746 c 0,0.6588 0.3294,0.9882 0.9882,0.9882 0.2376,0 0.432,0.0756 0.5832,0.2268 0.1512,0.1512 0.2268,0.351 0.2268,0.5994 0,0.2376 -0.0756,0.432 -0.2268,0.5832 -0.1512,0.162 -0.3456,0.243 -0.5832,0.243 z m 3.23397,-3.5316 c -0.3024,0 -0.567,-0.108 -0.7938,-0.324 -0.216,-0.2268 -0.324,-0.4914 -0.324,-0.7938 0,-0.3132 0.108,-0.5778 0.324,-0.7938 0.2268,-0.2268 0.4914,-0.3402 0.7938,-0.3402 0.3132,0 0.5778,0.1134 0.7938,0.3402 0.216,0.216 0.324,0.4806 0.324,0.7938 0,0.3024 -0.108,0.567 -0.324,0.7938 -0.216,0.216 -0.4806,0.324 -0.7938,0.324 z m 3.8601,0 c -0.3024,0 -0.567,-0.108 -0.7938,-0.324 -0.216,-0.2268 -0.324,-0.4914 -0.324,-0.7938 0,-0.3132 0.108,-0.5778 0.324,-0.7938 0.2268,-0.2268 0.4914,-0.3402 0.7938,-0.3402 0.3132,0 0.5778,0.1134 0.7938,0.3402 0.216,0.216 0.324,0.4806 0.324,0.7938 0,0.3024 -0.108,0.567 -0.324,0.7938 -0.216,0.216 -0.4806,0.324 -0.7938,0.324 z m 3.86019,0 c -0.3024,0 -0.567,-0.108 -0.7938,-0.324 -0.216,-0.2268 -0.324,-0.4914 -0.324,-0.7938 0,-0.3132 0.108,-0.5778 0.324,-0.7938 0.2268,-0.2268 0.4914,-0.3402 0.7938,-0.3402 0.3132,0 0.5778,0.1134 0.7938,0.3402 0.216,0.216 0.324,0.4806 0.324,0.7938 0,0.3024 -0.108,0.567 -0.324,0.7938 -0.216,0.216 -0.4806,0.324 -0.7938,0.324 z m 3.2445,3.5316 c -0.2376,0 -0.432,-0.081 -0.5832,-0.243 -0.1512,-0.1512 -0.2268,-0.3456 -0.2268,-0.5832 0,-0.2484 0.0756,-0.4482 0.2268,-0.5994 0.1512,-0.1512 0.3456,-0.2268 0.5832,-0.2268 0.6588,0 0.9882,-0.3294 0.9882,-0.9882 v -3.7746 c 0,-0.756 0.1728,-1.3554 0.5184,-1.7982 -0.1728,-0.2268 -0.3024,-0.4914 -0.3888,-0.7938 -0.0864,-0.3024 -0.1296,-0.6426 -0.1296,-1.0206 v -3.7746 c 0,-0.6588 -0.3294,-0.9882 -0.9882,-0.9882 -0.2376,0 -0.432,-0.0756 -0.5832,-0.2268 -0.1512,-0.1512 -0.2268,-0.3456 -0.2268,-0.5832 0,-0.2376 0.0756,-0.4374 0.2268,-0.5994 0.1512,-0.162 0.3456,-0.243 0.5832,-0.243 1.7604,0 2.6406,0.8802 2.6406,2.6406 v 3.7746 c 0,0.6588 0.324,0.9882 0.972,0.9882 0.2376,0 0.432,0.0756 0.5832,0.2268 0.162,0.1512 0.243,0.351 0.243,0.5994 0,0.2376 -0.081,0.432 -0.243,0.5832 -0.1512,0.1512 -0.3456,0.2268 -0.5832,0.2268 -0.648,0 -0.972,0.3294 -0.972,0.9882 v 3.7746 c 0,1.7604 -0.8802,2.6406 -2.6406,2.6406 z"
            fill="#ffffff"
            id="path843"
            style="stroke-width:0.0900001"/>
</svg>
