<?xml version="1.0" encoding="UTF-8" standalone="no"?>
<svg
        viewBox="0 0 16 16"
        fill="none"
        version="1.1"
        id="svg857"
        sodipodi:docname="codeiumError.svg"
        inkscape:version="1.2.1 (9c6d41e4, 2022-07-14)"
        width="16"
        height="16"
        xmlns:inkscape="http://www.inkscape.org/namespaces/inkscape"
        xmlns:sodipodi="http://sodipodi.sourceforge.net/DTD/sodipodi-0.dtd"
        xmlns="http://www.w3.org/2000/svg"
        xmlns:rdf="http://www.w3.org/1999/02/22-rdf-syntax-ns#"
        xmlns:cc="http://creativecommons.org/ns#"
        xmlns:dc="http://purl.org/dc/elements/1.1/">
    <metadata
            id="metadata863">
        <rdf:RDF>
            <cc:Work
                    rdf:about="">
                <dc:format>image/svg+xml</dc:format>
                <dc:type
                        rdf:resource="http://purl.org/dc/dcmitype/StillImage"/>
                <dc:title/>
            </cc:Work>
        </rdf:RDF>
    </metadata>
    <defs
            id="defs861">
        <inkscape:path-effect
                effect="powerclip"
                id="path-effect956"
                is_visible="true"
                lpeversion="1"
                inverse="true"
                flatten="false"
                hide_clip="false"
                message="Use fill-rule evenodd on &lt;b&gt;fill and stroke&lt;/b&gt; dialog if no flatten result after convert clip to paths."/>
        <inkscape:path-effect
                effect="powerclip"
                id="path-effect1445"
                is_visible="true"
                lpeversion="1"
                inverse="true"
                flatten="false"
                hide_clip="false"
                message="Use fill-rule evenodd on &lt;b&gt;fill and stroke&lt;/b&gt; dialog if no flatten result after convert clip to paths."/>
        <inkscape:path-effect
                effect="powermask"
                id="path-effect1528"
                is_visible="true"
                lpeversion="1"
                uri="#mask-powermask-path-effect1528"
                invert="false"
                hide_mask="false"
                background="true"
                background_color="#ffffffff"/>
        <mask
                maskUnits="userSpaceOnUse"
                id="mask-powermask-path-effect1528">
            <rect
                    x="3.5"
                    y="3.5"
                    width="9"
                    height="9"
                    rx="0.059999999"
                    fill="#606060"
                    id="rect1526"
                    style="fill:#000000;fill-opacity:1;stroke-width:0.03"/>
        </mask>
        <clipPath
                clipPathUnits="userSpaceOnUse"
                id="clipPath952">
            <path
                    fill-rule="evenodd"
                    clip-rule="evenodd"
                    d="m 11.740143,15.000323 c 1.794925,0 3.249988,-1.455075 3.249988,-3.25 0,-1.7949245 -1.455063,-3.2500007 -3.249988,-3.2500007 -1.7949245,0 -3.2499992,1.4550762 -3.2499992,3.2500007 0,1.794925 1.4550747,3.25 3.2499992,3.25 z"
                    fill="#db5860"
                    id="path954"
                    style="display:none;stroke-width:0.625"
                    sodipodi:nodetypes="sssss"/>
            <path
                    id="lpe_path-effect956"
                    style="stroke-width:0.625"
                    class="powerclip"
                    d="m -5.01272,-2.7495791 h 26 V 18.651179 h -26 z M 11.740143,15.000323 c 1.794925,0 3.249988,-1.455075 3.249988,-3.25 0,-1.7949245 -1.455063,-3.2500007 -3.249988,-3.2500007 -1.7949245,0 -3.2499992,1.4550762 -3.2499992,3.2500007 0,1.794925 1.4550747,3.25 3.2499992,3.25 z"/>
        </clipPath>
    </defs>
    <sodipodi:namedview
            pagecolor="#ffffff"
            bordercolor="#666666"
            borderopacity="1"
            objecttolerance="10"
            gridtolerance="10"
            guidetolerance="10"
            inkscape:pageopacity="0"
            inkscape:pageshadow="2"
            inkscape:window-width="2437"
            inkscape:window-height="1464"
            id="namedview859"
            showgrid="true"
            inkscape:zoom="78.5"
            inkscape:cx="5.9872611"
            inkscape:cy="8.0636943"
            inkscape:window-x="410"
            inkscape:window-y="108"
            inkscape:window-maximized="0"
            inkscape:current-layer="svg857"
            inkscape:pagecheckerboard="true"
            inkscape:document-rotation="0"
            inkscape:showpageshadow="0"
            inkscape:deskcolor="#d1d1d1">
        <inkscape:grid
                type="xygrid"
                id="grid1414"/>
    </sodipodi:namedview>
    <path
            d="m 3.0649231,13.651179 c -1.2205738,0 -1.8308607,-0.610287 -1.8308607,-1.830861 V 9.2031986 c 0,-0.4567792 -0.2246455,-0.6851688 -0.67393642,-0.6851688 -0.16474002,0 -0.3032714,-0.052417 -0.41559414,-0.1572518 C 0.03969728,8.2559434 -0.01272,8.1211562 -0.01272,7.9564161 c 0,-0.1722282 0.05241728,-0.3107595 0.15725184,-0.4155941 0.11232274,-0.1048346 0.25085412,-0.1572518 0.41559414,-0.1572518 0.44929092,0 0.67393642,-0.2283896 0.67393642,-0.6851688 V 4.0812816 c 0,-1.2205738 0.6102869,-1.8308607 1.8308607,-1.8308607 0.16474,0 0.2995273,0.056161 0.4043619,0.1684841 0.1048345,0.1123228 0.1572518,0.2508541 0.1572518,0.4155942 0,0.16474 -0.052417,0.2995273 -0.1572518,0.4043618 -0.1048346,0.1048346 -0.2396219,0.1572519 -0.4043619,0.1572519 -0.4567792,0 -0.6851687,0.2283895 -0.6851687,0.6851687 v 2.6171198 c 0,0.2620864 -0.029953,0.4979642 -0.089858,0.7076333 -0.059905,0.2096691 -0.1497637,0.3931296 -0.2695746,0.5503814 0.2396219,0.3070155 0.3594328,0.7226097 0.3594328,1.2467825 v 2.6171194 c 0,0.45678 0.2283895,0.685169 0.6851687,0.685169 0.16474,0 0.2995273,0.05242 0.4043619,0.157252 0.1048345,0.104835 0.1572518,0.243366 0.1572518,0.415594 0,0.16474 -0.052417,0.299527 -0.1572518,0.404362 -0.1048346,0.112323 -0.2396219,0.168484 -0.4043621,0.168484 z M 5.307197,11.202543 c -0.2096691,0 -0.3931296,-0.07488 -0.5503814,-0.224645 -0.1497637,-0.157252 -0.2246455,-0.340712 -0.2246455,-0.550382 0,-0.217157 0.074882,-0.400617 0.2246455,-0.550381 0.1572518,-0.1572518 0.3407123,-0.2358778 0.5503814,-0.2358778 0.2171573,0 0.4006178,0.078626 0.5503814,0.2358778 0.1497637,0.149764 0.2246455,0.333224 0.2246455,0.550381 0,0.20967 -0.074882,0.39313 -0.2246455,0.550382 -0.1497636,0.149764 -0.3332241,0.224645 -0.5503814,0.224645 z m 2.6764013,0 c -0.2096691,0 -0.3931296,-0.07488 -0.5503814,-0.224645 -0.1497637,-0.157252 -0.2246455,-0.340712 -0.2246455,-0.550382 0,-0.217157 0.074882,-0.400617 0.2246455,-0.550381 0.1572518,-0.1572518 0.3407123,-0.2358778 0.5503814,-0.2358778 0.2171573,0 0.4006178,0.078626 0.5503814,0.2358778 0.1497637,0.149764 0.2246455,0.333224 0.2246455,0.550381 0,0.20967 -0.074882,0.39313 -0.2246455,0.550382 -0.1497636,0.149764 -0.3332241,0.224645 -0.5503814,0.224645 z m 2.6764637,0 c -0.209669,0 -0.39313,-0.07488 -0.550381,-0.224645 -0.1497641,-0.157252 -0.2246459,-0.340712 -0.2246459,-0.550382 0,-0.217157 0.074882,-0.400617 0.2246459,-0.550381 0.157251,-0.1572518 0.340712,-0.2358778 0.550381,-0.2358778 0.217157,0 0.400618,0.078626 0.550381,0.2358778 0.149764,0.149764 0.224646,0.333224 0.224646,0.550381 0,0.20967 -0.07488,0.39313 -0.224646,0.550382 -0.149763,0.149764 -0.333224,0.224645 -0.550381,0.224645 z m 2.249575,2.448636 c -0.16474,0 -0.299527,-0.05616 -0.404362,-0.168484 -0.104835,-0.104835 -0.157252,-0.239622 -0.157252,-0.404362 0,-0.172228 0.05242,-0.310759 0.157252,-0.415594 0.104835,-0.104835 0.239622,-0.157252 0.404362,-0.157252 0.456779,0 0.685169,-0.228389 0.685169,-0.685169 V 9.2031986 c 0,-0.5241728 0.119811,-0.939767 0.359432,-1.2467825 C 13.834427,7.7991643 13.744569,7.6157038 13.684664,7.4060347 13.624758,7.1963656 13.594806,6.9604878 13.594806,6.6984014 V 4.0812816 c 0,-0.4567792 -0.22839,-0.6851687 -0.685169,-0.6851687 -0.16474,0 -0.299527,-0.052417 -0.404362,-0.1572519 -0.104835,-0.1048345 -0.157252,-0.2396218 -0.157252,-0.4043618 0,-0.1647401 0.05242,-0.3032714 0.157252,-0.4155942 0.104835,-0.1123227 0.239622,-0.1684841 0.404362,-0.1684841 1.220574,0 1.830861,0.6102869 1.830861,1.8308607 v 2.6171198 c 0,0.4567792 0.224645,0.6851688 0.673936,0.6851688 0.16474,0 0.299527,0.052417 0.404362,0.1572518 0.112323,0.1048346 0.168484,0.2433659 0.168484,0.4155941 0,0.1647401 -0.05616,0.2995273 -0.168484,0.4043619 -0.104835,0.1048346 -0.239622,0.1572518 -0.404362,0.1572518 -0.449291,0 -0.673936,0.2283896 -0.673936,0.6851688 v 2.6171194 c 0,1.220574 -0.610287,1.830861 -1.830861,1.830861 z"
            fill="#ffffff"
            id="path855"
            style="fill:#6e6e6e;fill-opacity:1;stroke-width:0.0624015"
            clip-path="url(#clipPath952)"
            inkscape:path-effect="#path-effect956"
            inkscape:original-d="m 3.0649231,13.651179 c -1.2205738,0 -1.8308607,-0.610287 -1.8308607,-1.830861 V 9.2031986 c 0,-0.4567792 -0.2246455,-0.6851688 -0.67393642,-0.6851688 -0.16474002,0 -0.3032714,-0.052417 -0.41559414,-0.1572518 C 0.03969728,8.2559434 -0.01272,8.1211562 -0.01272,7.9564161 c 0,-0.1722282 0.05241728,-0.3107595 0.15725184,-0.4155941 0.11232274,-0.1048346 0.25085412,-0.1572518 0.41559414,-0.1572518 0.44929092,0 0.67393642,-0.2283896 0.67393642,-0.6851688 V 4.0812816 c 0,-1.2205738 0.6102869,-1.8308607 1.8308607,-1.8308607 0.16474,0 0.2995273,0.056161 0.4043619,0.1684841 0.1048345,0.1123228 0.1572518,0.2508541 0.1572518,0.4155942 0,0.16474 -0.052417,0.2995273 -0.1572518,0.4043618 -0.1048346,0.1048346 -0.2396219,0.1572519 -0.4043619,0.1572519 -0.4567792,0 -0.6851687,0.2283895 -0.6851687,0.6851687 v 2.6171198 c 0,0.2620864 -0.029953,0.4979642 -0.089858,0.7076333 -0.059905,0.2096691 -0.1497637,0.3931296 -0.2695746,0.5503814 0.2396219,0.3070155 0.3594328,0.7226097 0.3594328,1.2467825 v 2.6171194 c 0,0.45678 0.2283895,0.685169 0.6851687,0.685169 0.16474,0 0.2995273,0.05242 0.4043619,0.157252 0.1048345,0.104835 0.1572518,0.243366 0.1572518,0.415594 0,0.16474 -0.052417,0.299527 -0.1572518,0.404362 -0.1048346,0.112323 -0.2396219,0.168484 -0.4043621,0.168484 z M 5.307197,11.202543 c -0.2096691,0 -0.3931296,-0.07488 -0.5503814,-0.224645 -0.1497637,-0.157252 -0.2246455,-0.340712 -0.2246455,-0.550382 0,-0.217157 0.074882,-0.400617 0.2246455,-0.550381 0.1572518,-0.1572518 0.3407123,-0.2358778 0.5503814,-0.2358778 0.2171573,0 0.4006178,0.078626 0.5503814,0.2358778 0.1497637,0.149764 0.2246455,0.333224 0.2246455,0.550381 0,0.20967 -0.074882,0.39313 -0.2246455,0.550382 -0.1497636,0.149764 -0.3332241,0.224645 -0.5503814,0.224645 z m 2.6764013,0 c -0.2096691,0 -0.3931296,-0.07488 -0.5503814,-0.224645 -0.1497637,-0.157252 -0.2246455,-0.340712 -0.2246455,-0.550382 0,-0.217157 0.074882,-0.400617 0.2246455,-0.550381 0.1572518,-0.1572518 0.3407123,-0.2358778 0.5503814,-0.2358778 0.2171573,0 0.4006178,0.078626 0.5503814,0.2358778 0.1497637,0.149764 0.2246455,0.333224 0.2246455,0.550381 0,0.20967 -0.074882,0.39313 -0.2246455,0.550382 -0.1497636,0.149764 -0.3332241,0.224645 -0.5503814,0.224645 z m 2.6764637,0 c -0.209669,0 -0.39313,-0.07488 -0.550381,-0.224645 -0.1497641,-0.157252 -0.2246459,-0.340712 -0.2246459,-0.550382 0,-0.217157 0.074882,-0.400617 0.2246459,-0.550381 0.157251,-0.1572518 0.340712,-0.2358778 0.550381,-0.2358778 0.217157,0 0.400618,0.078626 0.550381,0.2358778 0.149764,0.149764 0.224646,0.333224 0.224646,0.550381 0,0.20967 -0.07488,0.39313 -0.224646,0.550382 -0.149763,0.149764 -0.333224,0.224645 -0.550381,0.224645 z m 2.249575,2.448636 c -0.16474,0 -0.299527,-0.05616 -0.404362,-0.168484 -0.104835,-0.104835 -0.157252,-0.239622 -0.157252,-0.404362 0,-0.172228 0.05242,-0.310759 0.157252,-0.415594 0.104835,-0.104835 0.239622,-0.157252 0.404362,-0.157252 0.456779,0 0.685169,-0.228389 0.685169,-0.685169 V 9.2031986 c 0,-0.5241728 0.119811,-0.939767 0.359432,-1.2467825 C 13.834427,7.7991643 13.744569,7.6157038 13.684664,7.4060347 13.624758,7.1963656 13.594806,6.9604878 13.594806,6.6984014 V 4.0812816 c 0,-0.4567792 -0.22839,-0.6851687 -0.685169,-0.6851687 -0.16474,0 -0.299527,-0.052417 -0.404362,-0.1572519 -0.104835,-0.1048345 -0.157252,-0.2396218 -0.157252,-0.4043618 0,-0.1647401 0.05242,-0.3032714 0.157252,-0.4155942 0.104835,-0.1123227 0.239622,-0.1684841 0.404362,-0.1684841 1.220574,0 1.830861,0.6102869 1.830861,1.8308607 v 2.6171198 c 0,0.4567792 0.224645,0.6851688 0.673936,0.6851688 0.16474,0 0.299527,0.052417 0.404362,0.1572518 0.112323,0.1048346 0.168484,0.2433659 0.168484,0.4155941 0,0.1647401 -0.05616,0.2995273 -0.168484,0.4043619 -0.104835,0.1048346 -0.239622,0.1572518 -0.404362,0.1572518 -0.449291,0 -0.673936,0.2283896 -0.673936,0.6851688 v 2.6171194 c 0,1.220574 -0.610287,1.830861 -1.830861,1.830861 z"/>
    <ellipse
            style="display:none;fill:#db5860;fill-opacity:1;stroke:none;stroke-width:0.072;stroke-miterlimit:4;stroke-dasharray:none;stop-color:#000000"
            id="ellipse1443"
            cx="12.82294"
            cy="12.400004"
            rx="2.5639212"
            ry="2.5639267"/>
    <path
            fill-rule="evenodd"
            clip-rule="evenodd"
            d="m 11.740143,15.000323 c 1.794925,0 3.249988,-1.455075 3.249988,-3.25 0,-1.7949245 -1.455063,-3.2500007 -3.249988,-3.2500007 -1.7949245,0 -3.2499992,1.4550762 -3.2499992,3.2500007 0,1.794925 1.4550747,3.25 3.2499992,3.25 z m -0.62495,-5.3125055 h 1.25 v 2.1874995 h -1.25 z m 1.25,2.8124995 h -1.25 v 1.25 h 1.25 z"
            fill="#db5860"
            id="path841"
            style="stroke-width:0.625"/>
</svg>
