<svg width="13" height="13" viewBox="0 0 13 13" fill="none" xmlns="http://www.w3.org/2000/svg">
<g clip-path="url(#clip0_541_125)">
<g clip-path="url(#clip1_541_125)">
<path d="M2.49025 11.0916C1.49853 11.0916 1.00268 10.5958 1.00268 9.60403V7.47762C1.00268 7.10649 0.820151 6.92092 0.455102 6.92092C0.321251 6.92092 0.208694 6.87834 0.117432 6.79316C0.0322541 6.70798 -0.010335 6.59846 -0.010335 6.46461C-0.010335 6.32468 0.0322541 6.21212 0.117432 6.12694C0.208694 6.04176 0.321251 5.99918 0.455102 5.99918C0.820151 5.99918 1.00268 5.81361 1.00268 5.44248V3.31607C1.00268 2.32435 1.49853 1.82849 2.49025 1.82849C2.6241 1.82849 2.73362 1.87412 2.81879 1.96538C2.90397 2.05665 2.94656 2.1692 2.94656 2.30305C2.94656 2.43691 2.90397 2.54642 2.81879 2.6316C2.73362 2.71678 2.6241 2.75937 2.49025 2.75937C2.11912 2.75937 1.93355 2.94493 1.93355 3.31607V5.44248C1.93355 5.65542 1.90921 5.84707 1.86054 6.01743C1.81187 6.18778 1.73886 6.33685 1.64151 6.46461C1.8362 6.71406 1.93355 7.05173 1.93355 7.47762V9.60403C1.93355 9.97517 2.11912 10.1607 2.49025 10.1607C2.6241 10.1607 2.73362 10.2033 2.81879 10.2885C2.90397 10.3737 2.94656 10.4862 2.94656 10.6262C2.94656 10.76 2.90397 10.8695 2.81879 10.9547C2.73362 11.046 2.6241 11.0916 2.49025 11.0916ZM4.3121 9.10209C4.14174 9.10209 3.99268 9.04125 3.86491 8.91957C3.74323 8.7918 3.68239 8.64274 3.68239 8.47238C3.68239 8.29594 3.74323 8.14688 3.86491 8.0252C3.99268 7.89743 4.14174 7.83355 4.3121 7.83355C4.48854 7.83355 4.6376 7.89743 4.75928 8.0252C4.88097 8.14688 4.94181 8.29594 4.94181 8.47238C4.94181 8.64274 4.88097 8.7918 4.75928 8.91957C4.6376 9.04125 4.48854 9.10209 4.3121 9.10209ZM6.48667 9.10209C6.31632 9.10209 6.16726 9.04125 6.03949 8.91957C5.91781 8.7918 5.85696 8.64274 5.85696 8.47238C5.85696 8.29594 5.91781 8.14688 6.03949 8.0252C6.16726 7.89743 6.31632 7.83355 6.48667 7.83355C6.66311 7.83355 6.81218 7.89743 6.93386 8.0252C7.05554 8.14688 7.11638 8.29594 7.11638 8.47238C7.11638 8.64274 7.05554 8.7918 6.93386 8.91957C6.81218 9.04125 6.66311 9.10209 6.48667 9.10209ZM8.6613 9.10209C8.49094 9.10209 8.34188 9.04125 8.21412 8.91957C8.09243 8.7918 8.03159 8.64274 8.03159 8.47238C8.03159 8.29594 8.09243 8.14688 8.21412 8.0252C8.34188 7.89743 8.49094 7.83355 8.6613 7.83355C8.83774 7.83355 8.9868 7.89743 9.10848 8.0252C9.23017 8.14688 9.29101 8.29594 9.29101 8.47238C9.29101 8.64274 9.23017 8.7918 9.10848 8.91957C8.9868 9.04125 8.83774 9.10209 8.6613 9.10209ZM10.4891 11.0916C10.3552 11.0916 10.2457 11.046 10.1605 10.9547C10.0754 10.8695 10.0328 10.76 10.0328 10.6262C10.0328 10.4862 10.0754 10.3737 10.1605 10.2885C10.2457 10.2033 10.3552 10.1607 10.4891 10.1607C10.8602 10.1607 11.0458 9.97517 11.0458 9.60403V7.47762C11.0458 7.05173 11.1431 6.71406 11.3378 6.46461C11.2405 6.33685 11.1675 6.18778 11.1188 6.01743C11.0701 5.84707 11.0458 5.65542 11.0458 5.44248V3.31607C11.0458 2.94493 10.8602 2.75937 10.4891 2.75937C10.3552 2.75937 10.2457 2.71678 10.1605 2.6316C10.0754 2.54642 10.0328 2.43691 10.0328 2.30305C10.0328 2.1692 10.0754 2.05665 10.1605 1.96538C10.2457 1.87412 10.3552 1.82849 10.4891 1.82849C11.4808 1.82849 11.9767 2.32435 11.9767 3.31607V5.44248C11.9767 5.81361 12.1592 5.99918 12.5242 5.99918C12.6581 5.99918 12.7676 6.04176 12.8528 6.12694C12.944 6.21212 12.9897 6.32468 12.9897 6.46461C12.9897 6.59846 12.944 6.70798 12.8528 6.79316C12.7676 6.87833 12.6581 6.92092 12.5242 6.92092C12.1592 6.92092 11.9767 7.10649 11.9767 7.47762V9.60403C11.9767 10.5958 11.4808 11.0916 10.4891 11.0916Z" fill="#6E6E6E"/>
</g>
</g>
<defs>
<clipPath id="clip0_541_125">
<rect width="13" height="13" fill="white"/>
</clipPath>
<clipPath id="clip1_541_125">
<rect width="13" height="13" fill="white"/>
</clipPath>
</defs>
</svg>
